<svg height="488pt" viewBox="0 -6 488 488" width="488pt" xmlns="http://www.w3.org/2000/svg"><path d="m447.703125 472.988281h-407.40625c-3.476563 0-6.296875-2.816406-6.296875-6.296875v-11.703125h420v11.703125c0 3.480469-2.816406 6.296875-6.296875 6.296875zm0 0" fill="#f9cfcf"/><path d="m455.5 454.988281h-423c-15.738281 0-28.5-12.761719-28.5-28.5v-274.550781c0-15.738281 12.761719-28.5 28.5-28.5h423c15.738281 0 28.5 12.761719 28.5 28.5v274.550781c0 15.738281-12.761719 28.5-28.5 28.5zm0 0" fill="#f9a7a7"/><path d="m359.148438 339.304688v-182.578126c0-4.640624 3.761718-8.402343 8.40625-8.402343h79.191406c4.640625 0 8.402344 3.761719 8.402344 8.402343v182.578126c0 4.640624-3.761719 8.402343-8.402344 8.402343h-79.191406c-4.640626 0-8.40625-3.761719-8.40625-8.402343zm0 0" fill="#4671c6"/><path d="m417.421875 180.085938.082031-.066407-7.296875-9.308593c-1.597656-2.039063-4.511719-2.039063-6.109375 0l-7.296875 9.308593.082031.066407c-12.628906 4.28125-21.730468 16.207031-21.730468 30.285156 0 17.671875 14.324218 32 32 32 17.671875 0 32-14.328125 32-32-.003906-14.078125-9.105469-26.003906-21.730469-30.285156zm0 0" fill="#6bdddd"/><path d="m446.367188 287.964844-9.027344-7.074219c-4.359375-12.488281-16.210938-21.460937-30.1875-21.460937-17.675782 0-32 14.324218-32 32 0 17.671874 14.324218 32 32 32 14.394531 0 26.566406-9.511719 30.585937-22.589844l8.628907-6.761719c2.039062-1.597656 2.039062-4.515625 0-6.113281zm0 0" fill="#6bdddd"/><path d="m318.324219 176.507812v225.453126c0 2.160156-.851563 4.109374-2.222657 5.554687l18.625 16.628906c2.210938-2.761719 3.542969-6.277343 3.542969-10.105469v-249.609374c0-3.832032-1.332031-7.34375-3.542969-10.109376l-18.625 16.632813c1.371094 1.441406 2.222657 3.394531 2.222657 5.554687zm0 0" fill="#f9cfcf"/><path d="m48.941406 401.960938v-225.453126c0-2.160156.851563-4.113281 2.222656-5.554687l-18.621093-16.632813c-2.214844 2.765626-3.542969 6.277344-3.542969 10.109376v249.609374c0 3.828126 1.328125 7.339844 3.542969 10.105469l18.621093-16.628906c-1.367187-1.445313-2.222656-3.394531-2.222656-5.554687zm0 0" fill="#f9cfcf"/><path d="m322.3125 148.324219h-277.359375c-5.015625 0-9.488281 2.339843-12.410156 5.996093l18.621093 16.632813c1.453126-1.53125 3.488282-2.5 5.757813-2.5h253.429687c2.265626 0 4.300782.964844 5.753907 2.5l18.621093-16.632813c-2.925781-3.65625-7.394531-5.996093-12.414062-5.996093zm0 0" fill="#e0ebfc"/><path d="m44.953125 430.140625h277.359375c5.015625 0 9.488281-2.339844 12.414062-5.996094l-18.625-16.628906c-1.453124 1.53125-3.484374 2.496094-5.753906 2.496094h-253.429687c-2.265625 0-4.300781-.964844-5.753907-2.496094l-18.625 16.628906c2.925782 3.65625 7.398438 5.996094 12.414063 5.996094zm0 0" fill="#e0ebfc"/><path d="m455.5 458.988281h-423c-17.921875 0-32.5-14.578125-32.5-32.5v-274.550781c0-17.917969 14.578125-32.5 32.5-32.5h423c17.921875 0 32.5 14.582031 32.5 32.5v274.550781c0 17.921875-14.578125 32.5-32.5 32.5zm-423-331.550781c-13.511719 0-24.5 10.992188-24.5 24.5v274.550781c0 13.507813 10.992188 24.5 24.5 24.5h423c13.511719 0 24.5-10.992187 24.5-24.5v-274.550781c0-13.507812-10.992188-24.5-24.5-24.5zm0 0" fill="#3762cc"/><path d="m447.703125 476.988281h-407.40625c-5.675781 0-10.296875-4.617187-10.296875-10.292969v-11.707031c0-2.207031 1.792969-4 4-4h420c2.207031 0 4 1.792969 4 4v11.707031c0 5.675782-4.621094 10.292969-10.296875 10.292969zm-409.703125-18v7.707031c0 1.265626 1.03125 2.292969 2.296875 2.292969h407.40625c1.265625 0 2.296875-1.027343 2.296875-2.292969v-7.707031zm0 0" fill="#3762cc"/><path d="m56.679688 410.011719h59.652343v-241.558594h-59.652343c-4.273438 0-7.738282 3.71875-7.738282 8.304687v224.953126c0 4.585937 3.464844 8.300781 7.738282 8.300781zm0 0" fill="#f9a7a7"/><path d="m116.332031 168.453125h67.390625v241.558594h-67.390625zm0 0" fill="#6bdddd"/><path d="m183.722656 168.453125h67.390625v241.558594h-67.390625zm0 0" fill="#ffea92"/><g fill="#e0ebfc"><path d="m310.589844 168.453125h-59.476563v241.558594h59.476563c4.273437 0 7.734375-3.714844 7.734375-8.300781v-224.953126c0-4.585937-3.460938-8.304687-7.734375-8.304687zm0 0"/><path d="m427.550781 210.371094c0 11.265625-9.132812 20.402344-20.402343 20.402344-11.265626 0-20.398438-9.136719-20.398438-20.402344s9.132812-20.398438 20.398438-20.398438c11.269531 0 20.402343 9.132813 20.402343 20.398438zm0 0"/><path d="m427.550781 291.429688c0 11.265624-9.132812 20.398437-20.402343 20.398437-11.265626 0-20.398438-9.132813-20.398438-20.398437 0-11.269532 9.132812-20.402344 20.398438-20.402344 11.269531 0 20.402343 9.132812 20.402343 20.402344zm0 0"/></g><path d="m322.238281 434.140625h-277.210937c-11.042969 0-20.027344-8.984375-20.027344-20.027344v-249.761719c0-11.042968 8.984375-20.027343 20.027344-20.027343h277.210937c11.046875 0 20.03125 8.984375 20.03125 20.027343v249.761719c0 11.042969-8.984375 20.027344-20.03125 20.027344zm-277.210937-281.816406c-6.632813 0-12.027344 5.394531-12.027344 12.027343v249.761719c0 6.632813 5.394531 12.027344 12.027344 12.027344h277.210937c6.632813 0 12.03125-5.394531 12.03125-12.027344v-249.761719c0-6.632812-5.398437-12.027343-12.03125-12.027343zm0 0" fill="#3762cc"/><path d="m310.3125 414.011719h-253.355469c-6.625 0-12.015625-5.390625-12.015625-12.015625v-225.527344c0-6.625 5.390625-12.015625 12.015625-12.015625h253.355469c6.625 0 12.011719 5.390625 12.011719 12.015625v225.527344c0 6.625-5.386719 12.015625-12.011719 12.015625zm-253.355469-241.558594c-2.214843 0-4.015625 1.800781-4.015625 4.015625v225.527344c0 2.214844 1.800782 4.015625 4.015625 4.015625h253.355469c2.214844 0 4.011719-1.800781 4.011719-4.015625v-225.527344c0-2.214844-1.796875-4.015625-4.011719-4.015625zm0 0" fill="#3762cc"/><path d="m446.746094 351.707031h-79.191406c-6.839844 0-12.40625-5.5625-12.40625-12.402343v-182.578126c0-6.839843 5.566406-12.402343 12.40625-12.402343h79.191406c6.839844 0 12.402344 5.5625 12.402344 12.402343v182.578126c0 6.839843-5.5625 12.402343-12.402344 12.402343zm-79.191406-199.382812c-2.429688 0-4.40625 1.976562-4.40625 4.402343v182.578126c0 2.425781 1.976562 4.402343 4.40625 4.402343h79.191406c2.429687 0 4.402344-1.976562 4.402344-4.402343v-182.578126c0-2.425781-1.972657-4.402343-4.402344-4.402343zm0 0" fill="#3762cc"/><path d="m390.496094 387.929688h-26.691406c-2.570313 0-4.65625-2.082032-4.65625-4.652344v-15.957032c0-2.566406 2.085937-4.652343 4.65625-4.652343h26.691406c2.570312 0 4.65625 2.085937 4.65625 4.652343v15.957032c-.003906 2.570312-2.085938 4.652344-4.65625 4.652344zm0 0" fill="#6bdddd"/><path d="m390.496094 429.011719h-26.691406c-2.570313 0-4.65625-2.082031-4.65625-4.652344v-15.957031c0-2.566406 2.085937-4.652344 4.65625-4.652344h26.691406c2.570312 0 4.65625 2.085938 4.65625 4.652344v15.957031c-.003906 2.570313-2.085938 4.652344-4.65625 4.652344zm0 0" fill="#ffea92"/><path d="m390.496094 391.929688h-26.691406c-4.773438 0-8.65625-3.882813-8.65625-8.652344v-15.957032c0-4.769531 3.882812-8.652343 8.65625-8.652343h26.691406c4.773437 0 8.65625 3.882812 8.65625 8.652343v15.957032c-.003906 4.769531-3.882813 8.652344-8.65625 8.652344zm-26.691406-25.257813c-.359376 0-.65625.289063-.65625.648437v15.957032c0 .359375.292968.65625.65625.65625h26.691406c.363281 0 .65625-.292969.65625-.65625v-15.957032c0-.359374-.292969-.648437-.65625-.648437zm0 0" fill="#3762cc"/><path d="m390.496094 433.011719h-26.691406c-4.773438 0-8.65625-3.882813-8.65625-8.652344v-15.957031c0-4.769532 3.882812-8.652344 8.65625-8.652344h26.691406c4.773437 0 8.65625 3.882812 8.65625 8.652344v15.957031c-.003906 4.769531-3.882813 8.652344-8.65625 8.652344zm-26.691406-25.261719c-.359376 0-.65625.292969-.65625.652344v15.957031c0 .359375.292968.652344.65625.652344h26.691406c.363281 0 .65625-.292969.65625-.652344v-15.957031c0-.359375-.292969-.652344-.65625-.652344zm0 0" fill="#3762cc"/><path d="m93.980469 26.414062-8.246094 8.546876c-1.519531 1.574218-3.980469 1.574218-5.5 0l-13.285156-13.769532c-3.796875-3.929687-3.796875-10.308594 0-14.242187 3.792969-3.929688 9.949219-3.929688 13.746093 0l13.285157 13.769531c1.519531 1.570312 1.519531 4.121094 0 5.695312zm0 0" fill="#f9a7a7"/><path d="m394.019531 26.414062 8.246094 8.546876c1.519531 1.574218 3.980469 1.574218 5.5 0l13.285156-13.769532c3.796875-3.929687 3.796875-10.308594 0-14.242187-3.792969-3.929688-9.949219-3.929688-13.746093 0l-13.285157 13.769531c-1.519531 1.570312-1.519531 4.121094 0 5.695312zm0 0" fill="#f9a7a7"/><path d="m82.984375 40.136719c-2.132813 0-4.128906-.851563-5.625-2.402344l-13.289063-13.765625c-5.265624-5.457031-5.265624-14.339844 0-19.796875 2.597657-2.691406 6.0625-4.171875 9.75-4.171875 3.691407 0 7.15625 1.480469 9.75 4.171875l13.289063 13.765625c2.996094 3.101562 2.996094 8.152344 0 11.253906l-8.246094 8.542969c-1.492187 1.550781-3.492187 2.402344-5.628906 2.402344zm-9.164063-32.136719c-1.5 0-2.917968.613281-3.996093 1.726562-2.308594 2.394532-2.308594 6.292969 0 8.6875l13.160156 13.632813 8.121094-8.410156c.023437-.023438.023437-.117188 0-.140625l-13.289063-13.769532c-1.074218-1.113281-2.496094-1.726562-3.996094-1.726562zm20.160157 18.414062h.023437zm0 0" fill="#3762cc"/><path d="m405.015625 40.136719c-2.136719 0-4.136719-.851563-5.628906-2.402344l-8.25-8.542969c-2.996094-3.101562-2.996094-8.152344 0-11.253906l13.289062-13.765625c2.597657-2.691406 6.058594-4.171875 9.75-4.171875 3.691407 0 7.152344 1.480469 9.75 4.171875 5.269531 5.457031 5.269531 14.339844 0 19.796875l-13.289062 13.765625c-1.492188 1.550781-3.488281 2.402344-5.621094 2.402344zm-8.121094-16.5 8.121094 8.410156 13.160156-13.632813c2.3125-2.394531 2.3125-6.292968 0-8.6875-2.148437-2.226562-5.839843-2.226562-7.988281 0l-16.167969 16.6875zm0 0" fill="#3762cc"/><path d="m191.496094 123.4375-97.328125-97.257812c-.0625.074218-.113281.160156-.1875.234374l-8.246094 8.546876c-.070313.074218-.152344.125-.226563.191406l82.179688 88.285156zm0 0" fill="#f9cfcf"/><path d="m191.496094 127.4375h-23.804688c-1.113281 0-2.171875-.460938-2.929687-1.273438l-82.183594-88.289062c-.734375-.789062-1.117187-1.84375-1.066406-2.917969.050781-1.078125.539062-2.089843 1.347656-2.804687.03125-.023438.082031-.066406.128906-.109375l7.976563-8.261719c.050781-.066406.097656-.128906.148437-.1875.722657-.855469 1.769531-1.367188 2.886719-1.410156 1.117188-.050782 2.203125.375 2.992188 1.164062l97.332031 97.257813c1.144531 1.144531 1.488281 2.863281.867187 4.359375-.617187 1.496094-2.074218 2.472656-3.695312 2.472656zm-22.066406-8h12.40625l-87.597657-87.53125-3.199219 3.316406zm-86.550782-87.28125c-.015625.015625-.03125.035156-.050781.050781zm0 0" fill="#3762cc"/><path d="m320.308594 123.4375 82.183594-88.285156c-.074219-.066406-.15625-.117188-.226563-.191406l-8.25-8.546876c-.070313-.074218-.121094-.15625-.1875-.234374l-97.324219 97.257812zm0 0" fill="#f9cfcf"/><path d="m320.308594 127.4375h-23.804688c-1.621094 0-3.078125-.972656-3.699218-2.46875-.617188-1.496094-.273438-3.214844.871093-4.359375l97.328125-97.257813c.792969-.796874 1.882813-1.226562 3.007813-1.167968 1.125.050781 2.171875.574218 2.890625 1.4375.03125.03125.078125.09375.125.15625l7.976562 8.261718c.046875.039063.089844.078126.132813.117188.8125.714844 1.296875 1.722656 1.347656 2.800781.054687 1.078125-.332031 2.132813-1.066406 2.921875l-82.183594 88.285156c-.753906.8125-1.8125 1.273438-2.925781 1.273438zm-14.144532-8h12.40625l78.390626-84.214844-3.199219-3.316406zm0 0" fill="#3762cc"/><path d="m423.804688 403.75h26.691406c2.570312 0 4.65625 2.085938 4.65625 4.652344v15.957031c0 2.570313-2.085938 4.652344-4.65625 4.652344h-26.691406c-2.570313 0-4.65625-2.082031-4.65625-4.652344v-15.957031c0-2.566406 2.085937-4.652344 4.65625-4.652344zm0 0" fill="#6bdddd"/><path d="m423.804688 362.671875h26.691406c2.570312 0 4.65625 2.082031 4.65625 4.652344v15.953125c0 2.570312-2.085938 4.65625-4.65625 4.65625h-26.691406c-2.570313 0-4.65625-2.085938-4.65625-4.65625v-15.953125c0-2.570313 2.085937-4.652344 4.65625-4.652344zm0 0" fill="#ffea92"/><path d="m450.496094 433.011719h-26.691406c-4.773438 0-8.65625-3.882813-8.65625-8.652344v-15.957031c0-4.769532 3.882812-8.652344 8.65625-8.652344h26.691406c4.773437 0 8.65625 3.882812 8.65625 8.652344v15.957031c-.003906 4.769531-3.882813 8.652344-8.65625 8.652344zm-26.691406-25.261719c-.359376 0-.65625.292969-.65625.652344v15.957031c0 .359375.292968.652344.65625.652344h26.691406c.363281 0 .65625-.292969.65625-.652344v-15.957031c0-.359375-.292969-.652344-.65625-.652344zm0 0" fill="#3762cc"/><path d="m450.496094 391.929688h-26.691406c-4.773438 0-8.65625-3.882813-8.65625-8.652344v-15.957032c0-4.769531 3.882812-8.652343 8.65625-8.652343h26.691406c4.773437 0 8.65625 3.882812 8.65625 8.652343v15.957032c-.003906 4.769531-3.882813 8.652344-8.65625 8.652344zm-26.691406-25.257813c-.359376 0-.65625.289063-.65625.648437v15.957032c0 .359375.292968.65625.65625.65625h26.691406c.363281 0 .65625-.292969.65625-.65625v-15.957032c0-.359374-.292969-.648437-.65625-.648437zm0 0" fill="#3762cc"/></svg>